<svg width="120" height="36" viewBox="0 0 120 36" fill="none" xmlns="http://www.w3.org/2000/svg">
<path d="M64.2452 16.7465C63.1607 16.7465 62.1364 16.484 61.237 16.0235L66.3067 13.097L58.0049 8.30263C58.8484 5.68599 61.323 3.79236 64.2452 3.79236C67.8647 3.79236 70.7955 6.69305 70.7955 10.2694C70.7955 13.8458 67.8647 16.7465 64.2452 16.7465Z" fill="#121535"/>
<path d="M54.8633 19.7031V6.49078L58.005 8.30264C57.807 8.92237 57.6994 9.58084 57.6994 10.2694C57.6994 12.7742 59.1369 14.9475 61.2414 16.0235L54.8676 19.7031H54.8633Z" fill="#121535"/>
<path d="M6.89021 31.0821L6.66211 26.9807C8.43954 26.9807 9.76077 26.5589 10.6258 25.7154C11.4909 24.8718 11.9212 23.6023 11.9212 21.9023V7.02872H16.6166V21.8463C16.6166 24.0412 16.2895 25.8187 15.631 27.1743C14.9769 28.53 13.9354 29.5241 12.5065 30.1482C11.0777 30.7722 9.2056 31.0864 6.89021 31.0864V31.0821Z" fill="#121535"/>
<path d="M30.7238 30.3548C28.9851 30.3548 27.3841 30.0578 25.9122 29.4639C24.4447 28.87 23.1665 28.0351 22.0863 26.9635C21.0017 25.8918 20.1668 24.6352 19.5686 23.1891C18.9747 21.7474 18.6777 20.1722 18.6777 18.4637C18.6777 16.7551 18.9747 15.1799 19.5686 13.7296C20.1625 12.2792 21.0017 11.0226 22.0863 9.95525C23.1665 8.88793 24.4447 8.05732 25.9122 7.46341C27.3798 6.8695 28.9851 6.57254 30.7238 6.57254C32.4625 6.57254 34.0635 6.8695 35.5267 7.46341C36.99 8.05732 38.2596 8.88793 39.3312 9.95525C40.4028 11.0226 41.2377 12.2792 41.8402 13.7296C42.4428 15.1799 42.7397 16.7551 42.7397 18.4637C42.7397 20.1722 42.4384 21.7474 41.8402 23.1891C41.242 24.6309 40.4028 25.8918 39.3312 26.9635C38.2596 28.0351 36.99 28.87 35.5267 29.4639C34.0635 30.0578 32.4625 30.3548 30.7238 30.3548ZM30.7238 26.2534C31.7481 26.2534 32.7035 26.0554 33.5814 25.6594C34.4594 25.2635 35.2255 24.7126 35.8753 24.0068C36.5252 23.301 37.033 22.479 37.3945 21.5365C37.756 20.5983 37.9368 19.574 37.9368 18.4637C37.9368 17.3533 37.756 16.329 37.3945 15.3822C37.033 14.4354 36.5295 13.6134 35.8753 12.9033C35.2255 12.1975 34.4594 11.6466 33.5814 11.255C32.7035 10.8633 31.7481 10.6697 30.7238 10.6697C29.6995 10.6697 28.7269 10.8676 27.8489 11.255C26.971 11.6466 26.2006 12.1932 25.5464 12.9033C24.8923 13.6134 24.3844 14.4354 24.0229 15.3822C23.6614 16.329 23.4807 17.3533 23.4807 18.4637C23.4807 19.574 23.6614 20.5983 24.0229 21.5451C24.3844 22.4919 24.8923 23.3182 25.5464 24.024C26.2006 24.7298 26.971 25.2807 27.8489 25.6724C28.7269 26.064 29.6866 26.2577 30.7238 26.2577V26.2534Z" fill="#121535"/>
<path d="M59.7481 29.8986H44.8057V7.02872H49.501V25.7971H59.7481V29.8986Z" fill="#121535"/>
<path d="M68.6651 29.8986H63.9697V18.8553H68.6651V29.8986Z" fill="#121535"/>
<path d="M93.5927 29.8986H88.1959L77.5098 14.2848V29.8986H72.8145V7.02872H78.2113L88.8974 22.6727V7.02872H93.5927V29.8986Z" fill="#121535"/>
<path d="M107.192 29.8986H102.496V11.1301H95.7568V7.02872H113.944V11.1301H107.192V29.8986Z" fill="#121535"/>
</svg>
